<svg width="1460" height="460" viewBox="0 0 1460 460" fill="none" xmlns="http://www.w3.org/2000/svg">
<path d="M0 0H296C307.046 0 316 8.95431 316 20V40H20C8.9543 40 0 31.0457 0 20V0Z" fill="#1D1F57"/>
<path d="M336 0H477C488.046 0 497 8.95431 497 20V40H356C344.954 40 336 31.0457 336 20V0Z" fill="#3F2DB9"/>
<path d="M517 20C517 8.95431 525.954 0 537 0C548.046 0 557 8.95431 557 20C557 31.0457 548.046 40 537 40C525.954 40 517 31.0457 517 20Z" fill="#1D1F57"/>
<path d="M577 0H838C849.046 0 858 8.95431 858 20V40H597C585.954 40 577 31.0457 577 20V0Z" fill="#1D1F57"/>
<path d="M878 0H998C1009.05 0 1018 8.95431 1018 20V40H898C886.954 40 878 31.0457 878 20V0Z" fill="#3F2DB9"/>
<path d="M1039 20C1039 8.95431 1047.95 0 1059 0C1070.05 0 1079 8.95431 1079 20C1079 31.0457 1070.05 40 1059 40C1047.95 40 1039 31.0457 1039 20Z" fill="#35DAE6"/>
<path d="M1099 0H1239C1250.05 0 1259 8.95431 1259 20V40H1119C1107.95 40 1099 31.0457 1099 20V0Z" fill="#1D1F57"/>
<path d="M1279 0H1340C1351.05 0 1360 8.95431 1360 20V40H1299C1287.95 40 1279 31.0457 1279 20V0Z" fill="#EA4C88"/>
<path d="M1380 0H1440C1451.05 0 1460 8.95431 1460 20V40H1400C1388.95 40 1380 31.0457 1380 20V0Z" fill="#3F2DB9"/>
<path d="M1460 100L1164 100C1152.95 100 1144 91.0457 1144 80V60L1440 60C1451.05 60 1460 68.9543 1460 80V100Z" fill="#1D1F57"/>
<path d="M1124 100L983 100C971.954 100 963 91.0457 963 80V60L1104 60C1115.05 60 1124 68.9543 1124 80V100Z" fill="#1D1F57"/>
<path d="M943 80C943 91.0457 934.046 100 923 100C911.954 100 903 91.0457 903 80C903 68.9543 911.954 60 923 60C934.046 60 943 68.9543 943 80Z" fill="#EA4C88"/>
<path d="M883 100L622 100C610.954 100 602 91.0457 602 80V60L863 60C874.046 60 883 68.9543 883 80V100Z" fill="#3F2DB9"/>
<path d="M582 100L462 100C450.954 100 442 91.0457 442 80V60L562 60C573.046 60 582 68.9543 582 80V100Z" fill="#35DAE6"/>
<path d="M421 80C421 91.0457 412.046 100 401 100C389.954 100 381 91.0457 381 80C381 68.9543 389.954 60 401 60C412.046 60 421 68.9543 421 80Z" fill="#EA4C88"/>
<path d="M361 100L221 100C209.954 100 201 91.0457 201 80V60L341 60C352.046 60 361 68.9543 361 80V100Z" fill="#1D1F57"/>
<path d="M181 100L120 100C108.954 100 100 91.0457 100 80V60L161 60C172.046 60 181 68.9543 181 80V100Z" fill="#3F2DB9"/>
<path d="M80 100L20 100C8.95431 100 7.85501e-07 91.0457 1.75446e-06 80L3.50893e-06 60L60 60C71.0457 60 80 68.9543 80 80V100Z" fill="#1D1F57"/>
<path d="M1460 400L1164 400C1152.95 400 1144 391.046 1144 380V360L1440 360C1451.05 360 1460 368.954 1460 380V400Z" fill="#1D1F57"/>
<path d="M1124 400H983C971.954 400 963 391.046 963 380V360L1104 360C1115.05 360 1124 368.954 1124 380V400Z" fill="#1D1F57"/>
<path d="M943 380C943 391.046 934.046 400 923 400C911.954 400 903 391.046 903 380C903 368.954 911.954 360 923 360C934.046 360 943 368.954 943 380Z" fill="#EA4C88"/>
<path d="M883 400H622C610.954 400 602 391.046 602 380V360L863 360C874.046 360 883 368.954 883 380V400Z" fill="#1D1F57"/>
<path d="M582 400H462C450.954 400 442 391.046 442 380V360L562 360C573.046 360 582 368.954 582 380V400Z" fill="#1D1F57"/>
<path d="M421 380C421 391.046 412.046 400 401 400C389.954 400 381 391.046 381 380C381 368.954 389.954 360 401 360C412.046 360 421 368.954 421 380Z" fill="#3F2DB9"/>
<path d="M361 400H221C209.954 400 201 391.046 201 380V360L341 360C352.046 360 361 368.954 361 380V400Z" fill="#1D1F57"/>
<path d="M181 400H120C108.954 400 100 391.046 100 380V360H161C172.046 360 181 368.954 181 380V400Z" fill="#35DAE6"/>
<path d="M80 400H20C8.95431 400 7.85501e-07 391.046 1.75446e-06 380L3.50893e-06 360H60C71.0457 360 80 368.954 80 380V400Z" fill="#3F2DB9"/>
<path d="M1400 460L1104 460C1092.95 460 1084 451.046 1084 440V420L1380 420C1391.05 420 1400 428.954 1400 440V460Z" fill="#1D1F57"/>
<path d="M1064 460H923C911.954 460 903 451.046 903 440V420L1044 420C1055.05 420 1064 428.954 1064 440V460Z" fill="#35DAE6"/>
<path d="M1460 440C1460 451.046 1451.05 460 1440 460C1428.95 460 1420 451.046 1420 440C1420 428.954 1428.95 420 1440 420C1451.05 420 1460 428.954 1460 440Z" fill="#EA4C88"/>
<path d="M722 460L462 460C450.954 460 442 451.046 442 440V420L702 420C713.046 420 722 428.954 722 440V460Z" fill="#3F2DB9"/>
<path d="M883 460H763C751.954 460 743 451.046 743 440V420H863C874.046 420 883 428.954 883 440V460Z" fill="#1D1F57"/>
<path d="M40 440C40 451.046 31.0457 460 20 460C8.95431 460 7.85501e-07 451.046 1.75446e-06 440C2.72343e-06 428.954 8.95431 420 20 420C31.0457 420 40 428.954 40 440Z" fill="#EA4C88"/>
<path d="M321 460H181C169.954 460 161 451.046 161 440V420L301 420C312.046 420 321 428.954 321 440V460Z" fill="#35DAE6"/>
<path d="M421 460H361C349.954 460 341 451.046 341 440V420H401C412.046 420 421 428.954 421 440V460Z" fill="#1D1F57"/>
<path d="M140 460H80C68.9543 460 60 451.046 60 440L60 420H120C131.046 420 140 428.954 140 440V460Z" fill="#1D1F57"/>
<path d="M517 200C517 188.954 525.954 180 537 180C548.046 180 557 188.954 557 200C557 211.046 548.046 220 537 220C525.954 220 517 211.046 517 200Z" fill="#35DAE6"/>
<path d="M577 180H838C849.046 180 858 188.954 858 200V220H597C585.954 220 577 211.046 577 200V180Z" fill="#1D1F57"/>
<path d="M878 180H998C1009.05 180 1018 188.954 1018 200V220H898C886.954 220 878 211.046 878 200V180Z" fill="#1D1F57"/>
<path d="M1039 200C1039 188.954 1047.95 180 1059 180C1070.05 180 1079 188.954 1079 200C1079 211.046 1070.05 220 1059 220C1047.95 220 1039 211.046 1039 200Z" fill="#1D1F57"/>
<path d="M158 200C158 211.046 149.046 220 138 220C126.954 220 118 211.046 118 200C118 188.954 126.954 180 138 180C149.046 180 158 188.954 158 200Z" fill="#EA4C88"/>
<path d="M1099 180H1239C1250.05 180 1259 188.954 1259 200V220H1119C1107.95 220 1099 211.046 1099 200V180Z" fill="#1D1F57"/>
<path d="M240 220H201C189.954 220 181 211.046 181 200V180H220C231.046 180 240 188.954 240 200V220Z" fill="#1D1F57"/>
<path d="M1279 180H1340C1351.05 180 1360 188.954 1360 200V220H1299C1287.95 220 1279 211.046 1279 200V180Z" fill="#35DAE6"/>
<path d="M1380 180H1440C1451.05 180 1460 188.954 1460 200V220H1400C1388.95 220 1380 211.046 1380 200V180Z" fill="#1D1F57"/>
<path d="M100 220H20C8.9543 220 7.855e-07 211.046 1.75446e-06 200L3.50893e-06 180L80 180C91.0457 180 100 188.954 100 200V220Z" fill="#1D1F57"/>
<path d="M260 180H341C352.046 180 361 188.954 361 200V220H280C268.954 220 260 211.046 260 200V180Z" fill="#3F2DB9"/>
<path d="M380 180H477C488.046 180 497 188.954 497 200V220H400C388.954 220 380 211.046 380 200V180Z" fill="#1D1F57"/>
<path d="M1400 160L1104 160C1092.95 160 1084 151.046 1084 140V120L1380 120C1391.05 120 1400 128.954 1400 140V160Z" fill="#1D1F57"/>
<path d="M1064 160L923 160C911.954 160 903 151.046 903 140V120L1044 120C1055.05 120 1064 128.954 1064 140V160Z" fill="#3F2DB9"/>
<path d="M1460 140C1460 151.046 1451.05 160 1440 160C1428.95 160 1420 151.046 1420 140C1420 128.954 1428.95 120 1440 120C1451.05 120 1460 128.954 1460 140Z" fill="#35DAE6"/>
<path d="M722 160L462 160C450.954 160 442 151.046 442 140V120L702 120C713.046 120 722 128.954 722 140V160Z" fill="#1D1F57"/>
<path d="M883 160H763C751.954 160 743 151.046 743 140V120L863 120C874.046 120 883 128.954 883 140V160Z" fill="#1D1F57"/>
<path d="M161 160L21 160C9.95431 160 1 151.046 1 140L1 120L141 120C152.046 120 161 128.954 161 140V160Z" fill="#35DAE6"/>
<path d="M260 160H200C188.954 160 180 151.046 180 140V120H240C251.046 120 260 128.954 260 140V160Z" fill="#1D1F57"/>
<path d="M321 140C321 151.046 312.046 160 301 160H300C288.954 160 280 151.046 280 140C280 128.954 288.954 120 300 120H301C312.046 120 321 128.954 321 140Z" fill="#1D1F57"/>
<path d="M421 160H361C349.954 160 341 151.046 341 140V120H401C412.046 120 421 128.954 421 140V160Z" fill="#35DAE6"/>
<path d="M1460 280L1264 280C1252.95 280 1244 271.046 1244 260V240L1440 240C1451.05 240 1460 248.954 1460 260V280Z" fill="#35DAE6"/>
<path d="M1124 280H983C971.954 280 963 271.046 963 260V240L1104 240C1115.05 240 1124 248.954 1124 260V280Z" fill="#1D1F57"/>
<path d="M943 260C943 271.046 934.046 280 923 280C911.954 280 903 271.046 903 260C903 248.954 911.954 240 923 240C934.046 240 943 248.954 943 260Z" fill="#1D1F57"/>
<path d="M883 280L622 280C610.954 280 602 271.046 602 260V240L863 240C874.046 240 883 248.954 883 260V280Z" fill="#3F2DB9"/>
<path d="M582 280H462C450.954 280 442 271.046 442 260V240L562 240C573.046 240 582 248.954 582 260V280Z" fill="#35DAE6"/>
<path d="M1144 240H1204C1215.05 240 1224 248.954 1224 260V280H1164C1152.95 280 1144 271.046 1144 260V240Z" fill="#1D1F57"/>
<path d="M425 260C425 271.046 416.046 280 405 280C393.954 280 385 271.046 385 260C385 248.954 393.954 240 405 240C416.046 240 425 248.954 425 260Z" fill="#1D1F57"/>
<path d="M360 280H220C208.954 280 200 271.046 200 260V240L340 240C351.046 240 360 248.954 360 260V280Z" fill="#1D1F57"/>
<path d="M180 280H120C108.954 280 100 271.046 100 260V240H160C171.046 240 180 248.954 180 260V280Z" fill="#3F2DB9"/>
<path d="M85 280H21C9.9543 280 1 271.046 1 260L1 240H65C76.0457 240 85 248.954 85 260V280Z" fill="#1D1F57"/>
<path d="M1400 340H1104C1092.95 340 1084 331.046 1084 320V300L1380 300C1391.05 300 1400 308.954 1400 320V340Z" fill="#EA4C88"/>
<path d="M1064 340H923C911.954 340 903 331.046 903 320V300H1044C1055.05 300 1064 308.954 1064 320V340Z" fill="#1D1F57"/>
<path d="M1460 320C1460 331.046 1451.05 340 1440 340C1428.95 340 1420 331.046 1420 320C1420 308.954 1428.95 300 1440 300C1451.05 300 1460 308.954 1460 320Z" fill="#1D1F57"/>
<path d="M722 340H462C450.954 340 442 331.046 442 320V300L702 300C713.046 300 722 308.954 722 320V340Z" fill="#1D1F57"/>
<path d="M883 340H763C751.954 340 743 331.046 743 320V300L863 300C874.046 300 883 308.954 883 320V340Z" fill="#35DAE6"/>
<path d="M421 340H361C349.954 340 341 331.046 341 320V300H401C412.046 300 421 308.954 421 320V340Z" fill="#EA4C88"/>
<path d="M41 320C41 331.046 32.0457 340 21 340C9.95431 340 1 331.046 1 320C1 308.954 9.95431 300 21 300C32.0457 300 41 308.954 41 320Z" fill="#35DAE6"/>
<path d="M321 340H181C169.954 340 161 331.046 161 320V300H301C312.046 300 321 308.954 321 320V340Z" fill="#3F2DB9"/>
<path d="M141 340H81C69.9543 340 61 331.046 61 320L61 300H121C132.046 300 141 308.954 141 320V340Z" fill="#1D1F57"/>
</svg>
